<mxfile host="app.diagrams.net" modified="2023-05-17T07:36:16.811Z" agent="Mozilla/5.0 (Windows NT 10.0; Win64; x64) AppleWebKit/537.36 (KHTML, like Gecko) Chrome/113.0.0.0 Safari/537.36" etag="YFm9n4tUxiSEzeqMMZVQ" version="21.2.1" type="github">
  <diagram name="第 1 页" id="EY6AYwfko7_sltbW0h-Z">
    <mxGraphModel dx="2074" dy="664" grid="1" gridSize="10" guides="1" tooltips="1" connect="1" arrows="1" fold="1" page="1" pageScale="1" pageWidth="827" pageHeight="1169" math="0" shadow="0">
      <root>
        <mxCell id="0" />
        <mxCell id="1" parent="0" />
        <mxCell id="2CJtTAYrKENx-c4gSzAz-6" style="edgeStyle=orthogonalEdgeStyle;rounded=0;orthogonalLoop=1;jettySize=auto;html=1;" edge="1" parent="1" source="2CJtTAYrKENx-c4gSzAz-1" target="2CJtTAYrKENx-c4gSzAz-5">
          <mxGeometry relative="1" as="geometry" />
        </mxCell>
        <mxCell id="2CJtTAYrKENx-c4gSzAz-7" value="&lt;font style=&quot;font-size: 16px;&quot;&gt;内部调用&lt;/font&gt;" style="edgeLabel;html=1;align=center;verticalAlign=middle;resizable=0;points=[];" vertex="1" connectable="0" parent="2CJtTAYrKENx-c4gSzAz-6">
          <mxGeometry x="-0.2667" y="1" relative="1" as="geometry">
            <mxPoint x="-1" y="7" as="offset" />
          </mxGeometry>
        </mxCell>
        <mxCell id="2CJtTAYrKENx-c4gSzAz-1" value="&lt;pre style=&quot;background-color: rgb(255, 255, 255); color: rgb(8, 8, 8);&quot;&gt;&lt;font face=&quot;Lucida Console&quot; style=&quot;font-size: 20px;&quot;&gt;spice_usb_device_widget_constructed&lt;/font&gt;&lt;/pre&gt;" style="rounded=0;whiteSpace=wrap;html=1;" vertex="1" parent="1">
          <mxGeometry x="200" y="150" width="480" height="60" as="geometry" />
        </mxCell>
        <mxCell id="2CJtTAYrKENx-c4gSzAz-4" style="edgeStyle=orthogonalEdgeStyle;rounded=0;orthogonalLoop=1;jettySize=auto;html=1;" edge="1" parent="1" source="2CJtTAYrKENx-c4gSzAz-3" target="2CJtTAYrKENx-c4gSzAz-1">
          <mxGeometry relative="1" as="geometry" />
        </mxCell>
        <mxCell id="2CJtTAYrKENx-c4gSzAz-3" value="&lt;font style=&quot;font-size: 14px;&quot;&gt;打开透传设备窗口执行的函数&lt;/font&gt;" style="rounded=1;whiteSpace=wrap;html=1;fillColor=#d5e8d4;strokeColor=#82b366;" vertex="1" parent="1">
          <mxGeometry x="-160" y="155" width="260" height="50" as="geometry" />
        </mxCell>
        <mxCell id="2CJtTAYrKENx-c4gSzAz-11" style="edgeStyle=orthogonalEdgeStyle;rounded=0;orthogonalLoop=1;jettySize=auto;html=1;" edge="1" parent="1" source="2CJtTAYrKENx-c4gSzAz-5" target="2CJtTAYrKENx-c4gSzAz-10">
          <mxGeometry relative="1" as="geometry" />
        </mxCell>
        <mxCell id="2CJtTAYrKENx-c4gSzAz-12" value="&lt;font style=&quot;font-size: 16px;&quot;&gt;点击勾选框的回调函数&lt;/font&gt;" style="edgeLabel;html=1;align=center;verticalAlign=middle;resizable=0;points=[];" vertex="1" connectable="0" parent="2CJtTAYrKENx-c4gSzAz-11">
          <mxGeometry x="0.2667" y="2" relative="1" as="geometry">
            <mxPoint x="-2" y="-13" as="offset" />
          </mxGeometry>
        </mxCell>
        <mxCell id="2CJtTAYrKENx-c4gSzAz-5" value="&lt;pre style=&quot;background-color: rgb(255, 255, 255);&quot;&gt;&lt;font style=&quot;font-size: 20px;&quot; face=&quot;Lucida Console&quot; color=&quot;#080808&quot;&gt;spice_usb_device_widget_add_empty_cd(self);&lt;/font&gt;&lt;font color=&quot;#080808&quot;&gt;&lt;br&gt;&lt;/font&gt;&lt;/pre&gt;" style="rounded=0;whiteSpace=wrap;html=1;" vertex="1" parent="1">
          <mxGeometry x="155" y="300" width="570" height="60" as="geometry" />
        </mxCell>
        <mxCell id="2CJtTAYrKENx-c4gSzAz-9" style="edgeStyle=orthogonalEdgeStyle;rounded=0;orthogonalLoop=1;jettySize=auto;html=1;" edge="1" parent="1" source="2CJtTAYrKENx-c4gSzAz-8" target="2CJtTAYrKENx-c4gSzAz-5">
          <mxGeometry relative="1" as="geometry" />
        </mxCell>
        <mxCell id="2CJtTAYrKENx-c4gSzAz-8" value="&lt;div style=&quot;&quot;&gt;&lt;span style=&quot;font-size: 14px; background-color: initial;&quot;&gt;创建一个 SPICE CD (empty) 的&lt;/span&gt;&lt;span style=&quot;font-size: 14px; background-color: initial;&quot;&gt;单选框，&lt;/span&gt;&lt;/div&gt;&lt;font style=&quot;font-size: 14px;&quot;&gt;&lt;div style=&quot;&quot;&gt;&lt;font style=&quot;background-color: initial;&quot;&gt;并且绑定点击的回调函数&lt;/font&gt;&lt;font style=&quot;background-color: initial; font-size: 16px;&quot;&gt;empty_cd_clicked_cb&lt;/font&gt;&lt;/div&gt;&lt;/font&gt;" style="rounded=1;whiteSpace=wrap;html=1;fillColor=#d5e8d4;strokeColor=#82b366;align=center;" vertex="1" parent="1">
          <mxGeometry x="-280" y="305" width="370" height="50" as="geometry" />
        </mxCell>
        <mxCell id="2CJtTAYrKENx-c4gSzAz-14" style="edgeStyle=orthogonalEdgeStyle;rounded=0;orthogonalLoop=1;jettySize=auto;html=1;" edge="1" parent="1" source="2CJtTAYrKENx-c4gSzAz-10" target="2CJtTAYrKENx-c4gSzAz-13">
          <mxGeometry relative="1" as="geometry" />
        </mxCell>
        <mxCell id="2CJtTAYrKENx-c4gSzAz-15" value="&lt;font style=&quot;font-size: 16px;&quot;&gt;创建一个界面选择设备文件&lt;/font&gt;" style="edgeLabel;html=1;align=center;verticalAlign=middle;resizable=0;points=[];" vertex="1" connectable="0" parent="2CJtTAYrKENx-c4gSzAz-14">
          <mxGeometry x="0.2" y="-3" relative="1" as="geometry">
            <mxPoint x="3" y="-10" as="offset" />
          </mxGeometry>
        </mxCell>
        <mxCell id="2CJtTAYrKENx-c4gSzAz-10" value="&lt;pre style=&quot;background-color: rgb(255, 255, 255); font-size: 20px;&quot;&gt;&lt;pre style=&quot;color: rgb(8, 8, 8);&quot;&gt;&lt;font face=&quot;Lucida Console&quot;&gt;empty_cd_clicked_cb(GtkToggleButton *toggle, gpointer user_data)&lt;/font&gt;&lt;/pre&gt;&lt;/pre&gt;" style="rounded=0;whiteSpace=wrap;html=1;" vertex="1" parent="1">
          <mxGeometry x="32.5" y="460" width="815" height="60" as="geometry" />
        </mxCell>
        <mxCell id="2CJtTAYrKENx-c4gSzAz-19" style="edgeStyle=orthogonalEdgeStyle;rounded=0;orthogonalLoop=1;jettySize=auto;html=1;" edge="1" parent="1" source="2CJtTAYrKENx-c4gSzAz-13" target="2CJtTAYrKENx-c4gSzAz-18">
          <mxGeometry relative="1" as="geometry" />
        </mxCell>
        <mxCell id="2CJtTAYrKENx-c4gSzAz-20" value="&lt;font style=&quot;font-size: 17px;&quot;&gt;把选择的文件的路径进行传递&lt;/font&gt;" style="edgeLabel;html=1;align=center;verticalAlign=middle;resizable=0;points=[];" vertex="1" connectable="0" parent="2CJtTAYrKENx-c4gSzAz-19">
          <mxGeometry x="0.234" y="-3" relative="1" as="geometry">
            <mxPoint x="3" y="-14" as="offset" />
          </mxGeometry>
        </mxCell>
        <mxCell id="2CJtTAYrKENx-c4gSzAz-13" value="&lt;pre style=&quot;background-color: rgb(255, 255, 255);&quot;&gt;&lt;font color=&quot;#080808&quot;&gt;&lt;font style=&quot;font-size: 20px;&quot; face=&quot;Lucida Console&quot;&gt;gtk_file_chooser_dialog_new()&lt;/font&gt;&lt;br&gt;&lt;/font&gt;&lt;/pre&gt;" style="rounded=0;whiteSpace=wrap;html=1;" vertex="1" parent="1">
          <mxGeometry x="237.5" y="620" width="405" height="60" as="geometry" />
        </mxCell>
        <mxCell id="2CJtTAYrKENx-c4gSzAz-17" style="edgeStyle=orthogonalEdgeStyle;rounded=0;orthogonalLoop=1;jettySize=auto;html=1;" edge="1" parent="1" source="2CJtTAYrKENx-c4gSzAz-16" target="2CJtTAYrKENx-c4gSzAz-13">
          <mxGeometry relative="1" as="geometry" />
        </mxCell>
        <mxCell id="2CJtTAYrKENx-c4gSzAz-16" value="&lt;div style=&quot;&quot;&gt;&lt;span style=&quot;font-size: 14px;&quot;&gt;选择要透传的ISO文件或者设备文件&lt;/span&gt;&lt;/div&gt;" style="rounded=1;whiteSpace=wrap;html=1;fillColor=#d5e8d4;strokeColor=#82b366;align=center;" vertex="1" parent="1">
          <mxGeometry x="-160" y="625" width="270" height="50" as="geometry" />
        </mxCell>
        <mxCell id="2CJtTAYrKENx-c4gSzAz-22" style="edgeStyle=orthogonalEdgeStyle;rounded=0;orthogonalLoop=1;jettySize=auto;html=1;" edge="1" parent="1" source="2CJtTAYrKENx-c4gSzAz-18" target="2CJtTAYrKENx-c4gSzAz-21">
          <mxGeometry relative="1" as="geometry" />
        </mxCell>
        <mxCell id="2CJtTAYrKENx-c4gSzAz-23" value="&lt;pre style=&quot;color: rgb(8, 8, 8);&quot;&gt;&lt;font style=&quot;font-size: 16px;&quot; face=&quot;Lucida Console&quot;&gt;#ifdef USE_USBREDIR&lt;/font&gt;&lt;/pre&gt;" style="edgeLabel;html=1;align=center;verticalAlign=middle;resizable=0;points=[];" vertex="1" connectable="0" parent="2CJtTAYrKENx-c4gSzAz-22">
          <mxGeometry x="0.3007" y="-1" relative="1" as="geometry">
            <mxPoint x="1" y="-15" as="offset" />
          </mxGeometry>
        </mxCell>
        <mxCell id="2CJtTAYrKENx-c4gSzAz-18" value="&lt;pre style=&quot;background-color: rgb(255, 255, 255);&quot;&gt;&lt;pre style=&quot;color: rgb(8, 8, 8);&quot;&gt;&lt;font face=&quot;Lucida Console&quot; style=&quot;font-size: 20px;&quot;&gt;spice_usb_device_manager_create_shared_cd_device(priv-&amp;gt;manager, filename, &amp;amp;err)&lt;/font&gt;&lt;/pre&gt;&lt;/pre&gt;" style="rounded=0;whiteSpace=wrap;html=1;" vertex="1" parent="1">
          <mxGeometry x="-68.75" y="800" width="1017.5" height="60" as="geometry" />
        </mxCell>
        <mxCell id="2CJtTAYrKENx-c4gSzAz-28" style="edgeStyle=orthogonalEdgeStyle;rounded=0;orthogonalLoop=1;jettySize=auto;html=1;" edge="1" parent="1" source="2CJtTAYrKENx-c4gSzAz-21" target="2CJtTAYrKENx-c4gSzAz-25">
          <mxGeometry relative="1" as="geometry">
            <Array as="points">
              <mxPoint x="900" y="1030" />
            </Array>
          </mxGeometry>
        </mxCell>
        <mxCell id="2CJtTAYrKENx-c4gSzAz-31" value="是" style="edgeLabel;html=1;align=center;verticalAlign=middle;resizable=0;points=[];fontSize=20;" vertex="1" connectable="0" parent="2CJtTAYrKENx-c4gSzAz-28">
          <mxGeometry x="-0.5248" y="2" relative="1" as="geometry">
            <mxPoint x="9" y="2" as="offset" />
          </mxGeometry>
        </mxCell>
        <mxCell id="2CJtTAYrKENx-c4gSzAz-29" style="edgeStyle=orthogonalEdgeStyle;rounded=0;orthogonalLoop=1;jettySize=auto;html=1;entryX=0.5;entryY=0;entryDx=0;entryDy=0;exitX=0;exitY=0.5;exitDx=0;exitDy=0;" edge="1" parent="1" source="2CJtTAYrKENx-c4gSzAz-21" target="2CJtTAYrKENx-c4gSzAz-24">
          <mxGeometry relative="1" as="geometry" />
        </mxCell>
        <mxCell id="2CJtTAYrKENx-c4gSzAz-30" value="&lt;font style=&quot;font-size: 20px;&quot;&gt;否&lt;/font&gt;" style="edgeLabel;html=1;align=center;verticalAlign=middle;resizable=0;points=[];fontSize=20;" vertex="1" connectable="0" parent="2CJtTAYrKENx-c4gSzAz-29">
          <mxGeometry x="-0.2837" relative="1" as="geometry">
            <mxPoint x="31" as="offset" />
          </mxGeometry>
        </mxCell>
        <mxCell id="2CJtTAYrKENx-c4gSzAz-21" value="&lt;font style=&quot;font-size: 20px;&quot;&gt;判断是否开启了Usbredir&lt;/font&gt;" style="rhombus;whiteSpace=wrap;html=1;" vertex="1" parent="1">
          <mxGeometry x="270" y="960" width="340" height="140" as="geometry" />
        </mxCell>
        <mxCell id="2CJtTAYrKENx-c4gSzAz-24" value="&lt;pre style=&quot;background-color: rgb(255, 255, 255);&quot;&gt;&lt;pre style=&quot;color: rgb(8, 8, 8); font-size: 20px;&quot;&gt;&lt;font style=&quot;font-size: 20px;&quot; face=&quot;Lucida Console&quot;&gt;return FALSE;&lt;/font&gt;&lt;/pre&gt;&lt;/pre&gt;" style="rounded=0;whiteSpace=wrap;html=1;" vertex="1" parent="1">
          <mxGeometry x="-90" y="1200" width="245" height="60" as="geometry" />
        </mxCell>
        <mxCell id="2CJtTAYrKENx-c4gSzAz-35" style="edgeStyle=orthogonalEdgeStyle;rounded=0;orthogonalLoop=1;jettySize=auto;html=1;" edge="1" parent="1" source="2CJtTAYrKENx-c4gSzAz-25" target="2CJtTAYrKENx-c4gSzAz-34">
          <mxGeometry relative="1" as="geometry" />
        </mxCell>
        <mxCell id="2CJtTAYrKENx-c4gSzAz-36" value="&lt;font style=&quot;font-size: 16px;&quot;&gt;内部调用&lt;/font&gt;" style="edgeLabel;html=1;align=center;verticalAlign=middle;resizable=0;points=[];" vertex="1" connectable="0" parent="2CJtTAYrKENx-c4gSzAz-35">
          <mxGeometry x="0.1429" y="-2" relative="1" as="geometry">
            <mxPoint x="2" y="-10" as="offset" />
          </mxGeometry>
        </mxCell>
        <mxCell id="2CJtTAYrKENx-c4gSzAz-25" value="&lt;pre style=&quot;background-color: rgb(255, 255, 255);&quot;&gt;&lt;pre style=&quot;color: rgb(8, 8, 8);&quot;&gt;&lt;font face=&quot;Lucida Console&quot; style=&quot;font-size: 20px;&quot;&gt;create_emulated_cd(priv-&amp;gt;context, &amp;amp;cd_params, err);&lt;/font&gt;&lt;/pre&gt;&lt;/pre&gt;" style="rounded=0;whiteSpace=wrap;html=1;" vertex="1" parent="1">
          <mxGeometry x="580" y="1200" width="647.5" height="60" as="geometry" />
        </mxCell>
        <mxCell id="2CJtTAYrKENx-c4gSzAz-33" style="edgeStyle=orthogonalEdgeStyle;rounded=0;orthogonalLoop=1;jettySize=auto;html=1;" edge="1" parent="1" source="2CJtTAYrKENx-c4gSzAz-32" target="2CJtTAYrKENx-c4gSzAz-18">
          <mxGeometry relative="1" as="geometry" />
        </mxCell>
        <mxCell id="2CJtTAYrKENx-c4gSzAz-32" value="&lt;div style=&quot;&quot;&gt;&lt;span style=&quot;font-size: 14px;&quot;&gt;创建共享CD设备&lt;/span&gt;&lt;/div&gt;" style="rounded=1;whiteSpace=wrap;html=1;fillColor=#d5e8d4;strokeColor=#82b366;align=center;" vertex="1" parent="1">
          <mxGeometry x="-413" y="805" width="270" height="50" as="geometry" />
        </mxCell>
        <mxCell id="2CJtTAYrKENx-c4gSzAz-43" style="edgeStyle=orthogonalEdgeStyle;rounded=0;orthogonalLoop=1;jettySize=auto;html=1;" edge="1" parent="1" source="2CJtTAYrKENx-c4gSzAz-34" target="2CJtTAYrKENx-c4gSzAz-39">
          <mxGeometry relative="1" as="geometry" />
        </mxCell>
        <mxCell id="2CJtTAYrKENx-c4gSzAz-34" value="&lt;pre style=&quot;background-color: rgb(255, 255, 255);&quot;&gt;&lt;pre style=&quot;&quot;&gt;&lt;pre style=&quot;&quot;&gt;&lt;font style=&quot;font-size: 20px;&quot; face=&quot;Lucida Console&quot;&gt;&lt;font color=&quot;#080808&quot;&gt;spice_usb_backend_create_emulated_device(be, &lt;/font&gt;&lt;font color=&quot;#3333ff&quot;&gt;usb_cd_create&lt;/font&gt;&lt;font color=&quot;#080808&quot;&gt;, param, err)&lt;/font&gt;&lt;/font&gt;&lt;/pre&gt;&lt;/pre&gt;&lt;/pre&gt;" style="rounded=0;whiteSpace=wrap;html=1;" vertex="1" parent="1">
          <mxGeometry x="445" y="1400" width="917.5" height="60" as="geometry" />
        </mxCell>
        <mxCell id="2CJtTAYrKENx-c4gSzAz-38" style="edgeStyle=orthogonalEdgeStyle;rounded=0;orthogonalLoop=1;jettySize=auto;html=1;" edge="1" parent="1" source="2CJtTAYrKENx-c4gSzAz-37" target="2CJtTAYrKENx-c4gSzAz-34">
          <mxGeometry relative="1" as="geometry" />
        </mxCell>
        <mxCell id="2CJtTAYrKENx-c4gSzAz-37" value="&lt;div style=&quot;&quot;&gt;&lt;span style=&quot;font-size: 14px;&quot;&gt;创建了一个&lt;/span&gt;&lt;font style=&quot;font-size: 16px;&quot;&gt;SpiceUsbDevice结构体&lt;br&gt;设置了bus，address，和引用计数，然后调用&lt;br&gt;usb_cd_create来创建设备，然后获取设备的各种信息&lt;/font&gt;&lt;/div&gt;" style="rounded=1;whiteSpace=wrap;html=1;fillColor=#d5e8d4;strokeColor=#82b366;align=center;" vertex="1" parent="1">
          <mxGeometry x="1460" y="1385" width="410" height="90" as="geometry" />
        </mxCell>
        <mxCell id="2CJtTAYrKENx-c4gSzAz-46" style="edgeStyle=orthogonalEdgeStyle;rounded=0;orthogonalLoop=1;jettySize=auto;html=1;" edge="1" parent="1" source="2CJtTAYrKENx-c4gSzAz-39" target="2CJtTAYrKENx-c4gSzAz-45">
          <mxGeometry relative="1" as="geometry" />
        </mxCell>
        <mxCell id="2CJtTAYrKENx-c4gSzAz-39" value="&lt;pre style=&quot;background-color: rgb(255, 255, 255);&quot;&gt;&lt;pre style=&quot;color: rgb(8, 8, 8);&quot;&gt;&lt;pre style=&quot;&quot;&gt;&lt;font face=&quot;Lucida Console&quot; style=&quot;font-size: 20px;&quot;&gt;create_proc(be, dev, create_params, err)&lt;/font&gt;&lt;/pre&gt;&lt;/pre&gt;&lt;/pre&gt;" style="rounded=0;whiteSpace=wrap;html=1;" vertex="1" parent="1">
          <mxGeometry x="633.75" y="1580" width="540" height="60" as="geometry" />
        </mxCell>
        <mxCell id="2CJtTAYrKENx-c4gSzAz-42" style="edgeStyle=orthogonalEdgeStyle;rounded=0;orthogonalLoop=1;jettySize=auto;html=1;" edge="1" parent="1" source="2CJtTAYrKENx-c4gSzAz-41" target="2CJtTAYrKENx-c4gSzAz-39">
          <mxGeometry relative="1" as="geometry" />
        </mxCell>
        <mxCell id="2CJtTAYrKENx-c4gSzAz-41" value="&lt;div style=&quot;&quot;&gt;&lt;font style=&quot;font-size: 16px;&quot;&gt;就是 usb_cd_create ,因为传进来的是函数指针&lt;/font&gt;&lt;/div&gt;" style="rounded=1;whiteSpace=wrap;html=1;fillColor=#d5e8d4;strokeColor=#82b366;align=center;" vertex="1" parent="1">
          <mxGeometry x="1320" y="1580" width="400" height="60" as="geometry" />
        </mxCell>
        <mxCell id="2CJtTAYrKENx-c4gSzAz-44" value="&lt;font style=&quot;font-size: 16px;&quot;&gt;内部调用&lt;/font&gt;" style="edgeLabel;html=1;align=center;verticalAlign=middle;resizable=0;points=[];" vertex="1" connectable="0" parent="1">
          <mxGeometry x="913.75" y="1360" as="geometry">
            <mxPoint x="-11" y="147" as="offset" />
          </mxGeometry>
        </mxCell>
        <mxCell id="2CJtTAYrKENx-c4gSzAz-55" style="edgeStyle=orthogonalEdgeStyle;rounded=0;orthogonalLoop=1;jettySize=auto;html=1;exitX=1;exitY=1;exitDx=0;exitDy=0;" edge="1" parent="1" source="2CJtTAYrKENx-c4gSzAz-45" target="2CJtTAYrKENx-c4gSzAz-49">
          <mxGeometry relative="1" as="geometry" />
        </mxCell>
        <mxCell id="2CJtTAYrKENx-c4gSzAz-56" value="&lt;font style=&quot;font-size: 17px;&quot;&gt;调用函数设置UsbCd结构体的msc属性&lt;/font&gt;" style="edgeLabel;html=1;align=center;verticalAlign=middle;resizable=0;points=[];" vertex="1" connectable="0" parent="2CJtTAYrKENx-c4gSzAz-55">
          <mxGeometry x="0.1694" y="-1" relative="1" as="geometry">
            <mxPoint x="-52" as="offset" />
          </mxGeometry>
        </mxCell>
        <mxCell id="2CJtTAYrKENx-c4gSzAz-45" value="&lt;pre style=&quot;background-color: rgb(255, 255, 255);&quot;&gt;&lt;pre style=&quot;color: rgb(8, 8, 8);&quot;&gt;&lt;pre style=&quot;font-size: 20px;&quot;&gt;&lt;pre style=&quot;&quot;&gt;&lt;font face=&quot;Lucida Console&quot;&gt;usb_cd_create(SpiceUsbBackend *be, SpiceUsbDevice *parent, void *opaque_param, GError **err)&lt;/font&gt;&lt;/pre&gt;&lt;/pre&gt;&lt;/pre&gt;&lt;/pre&gt;" style="rounded=0;whiteSpace=wrap;html=1;" vertex="1" parent="1">
          <mxGeometry x="315.63" y="1780" width="1176.25" height="60" as="geometry" />
        </mxCell>
        <mxCell id="2CJtTAYrKENx-c4gSzAz-53" style="edgeStyle=orthogonalEdgeStyle;rounded=0;orthogonalLoop=1;jettySize=auto;html=1;" edge="1" parent="1" source="2CJtTAYrKENx-c4gSzAz-47" target="2CJtTAYrKENx-c4gSzAz-45">
          <mxGeometry relative="1" as="geometry" />
        </mxCell>
        <mxCell id="2CJtTAYrKENx-c4gSzAz-47" value="&lt;div style=&quot;&quot;&gt;&lt;span style=&quot;font-size: 14px;&quot;&gt;创建了一个&lt;/span&gt;&lt;font style=&quot;font-size: 16px;&quot;&gt;UsbCd&lt;span style=&quot;background-color: initial;&quot;&gt;结构体，&lt;/span&gt;设置了dev_ops，&lt;/font&gt;&lt;font style=&quot;font-size: 16px;&quot;&gt;backend，&lt;/font&gt;&lt;font style=&quot;font-size: 16px;&quot;&gt;parent，&lt;br&gt;&lt;/font&gt;&lt;font style=&quot;font-size: 16px;&quot;&gt;delete_on_eject&lt;/font&gt;&lt;span style=&quot;font-size: 13px;&quot;&gt;，&lt;/span&gt;&lt;font style=&quot;font-size: 16px;&quot;&gt;locked，serial，max_lun_index，msc的变量，&lt;/font&gt;&lt;br&gt;&lt;/div&gt;" style="rounded=1;whiteSpace=wrap;html=1;fillColor=#d5e8d4;strokeColor=#82b366;align=center;" vertex="1" parent="1">
          <mxGeometry x="1630" y="1772.5" width="520" height="75" as="geometry" />
        </mxCell>
        <mxCell id="2CJtTAYrKENx-c4gSzAz-60" style="edgeStyle=orthogonalEdgeStyle;rounded=0;orthogonalLoop=1;jettySize=auto;html=1;exitX=1;exitY=1;exitDx=0;exitDy=0;" edge="1" parent="1" source="2CJtTAYrKENx-c4gSzAz-49" target="2CJtTAYrKENx-c4gSzAz-59">
          <mxGeometry relative="1" as="geometry" />
        </mxCell>
        <mxCell id="2CJtTAYrKENx-c4gSzAz-61" value="&lt;font style=&quot;font-size: 17px;&quot;&gt;调用函数设置UsbCdBulkMsdDevice结构体的scsi_target属性&lt;/font&gt;" style="edgeLabel;html=1;align=center;verticalAlign=middle;resizable=0;points=[];" vertex="1" connectable="0" parent="2CJtTAYrKENx-c4gSzAz-60">
          <mxGeometry x="-0.2447" y="-1" relative="1" as="geometry">
            <mxPoint x="78" as="offset" />
          </mxGeometry>
        </mxCell>
        <mxCell id="2CJtTAYrKENx-c4gSzAz-49" value="&lt;pre style=&quot;background-color: rgb(255, 255, 255);&quot;&gt;&lt;pre style=&quot;color: rgb(8, 8, 8);&quot;&gt;&lt;pre style=&quot;&quot;&gt;&lt;pre style=&quot;&quot;&gt;&lt;font style=&quot;font-size: 20px;&quot; face=&quot;Lucida Console&quot;&gt;cd_usb_bulk_msd_alloc(d, MAX_LUN_PER_DEVICE);&lt;/font&gt;&lt;/pre&gt;&lt;/pre&gt;&lt;/pre&gt;&lt;/pre&gt;" style="rounded=0;whiteSpace=wrap;html=1;" vertex="1" parent="1">
          <mxGeometry x="1654" y="2030" width="576.25" height="60" as="geometry" />
        </mxCell>
        <mxCell id="2CJtTAYrKENx-c4gSzAz-58" style="edgeStyle=orthogonalEdgeStyle;rounded=0;orthogonalLoop=1;jettySize=auto;html=1;" edge="1" parent="1" source="2CJtTAYrKENx-c4gSzAz-57" target="2CJtTAYrKENx-c4gSzAz-49">
          <mxGeometry relative="1" as="geometry" />
        </mxCell>
        <mxCell id="2CJtTAYrKENx-c4gSzAz-57" value="&lt;div style=&quot;&quot;&gt;&lt;span style=&quot;font-size: 14px;&quot;&gt;创建了一个&lt;/span&gt;&lt;font style=&quot;font-size: 16px;&quot;&gt;UsbCdBulkMsdDevice&lt;font style=&quot;background-color: initial;&quot;&gt;&lt;span style=&quot;background-color: initial;&quot;&gt;结构体，&lt;br&gt;&lt;/span&gt;设置了&lt;/font&gt;&lt;/font&gt;&lt;font style=&quot;font-size: 16px;&quot;&gt;data_buf_len，data_buf，scsi_target，&lt;/font&gt;&lt;font style=&quot;font-size: 16px;&quot;&gt;usb_user_data&lt;/font&gt;&lt;span style=&quot;background-color: initial; font-size: 16px;&quot;&gt;的变量，&lt;/span&gt;&lt;/div&gt;" style="rounded=1;whiteSpace=wrap;html=1;fillColor=#d5e8d4;strokeColor=#82b366;align=center;" vertex="1" parent="1">
          <mxGeometry x="2420" y="2022.5" width="540" height="75" as="geometry" />
        </mxCell>
        <mxCell id="2CJtTAYrKENx-c4gSzAz-59" value="&lt;pre style=&quot;background-color: rgb(255, 255, 255);&quot;&gt;&lt;pre style=&quot;color: rgb(8, 8, 8);&quot;&gt;&lt;pre style=&quot;&quot;&gt;&lt;pre style=&quot;&quot;&gt;&lt;font style=&quot;font-size: 20px;&quot; face=&quot;Lucida Console&quot;&gt;cd_usb_bulk_msd_alloc(d, MAX_LUN_PER_DEVICE);&lt;/font&gt;&lt;/pre&gt;&lt;/pre&gt;&lt;/pre&gt;&lt;/pre&gt;" style="rounded=0;whiteSpace=wrap;html=1;" vertex="1" parent="1">
          <mxGeometry x="2470" y="2220" width="576.25" height="60" as="geometry" />
        </mxCell>
      </root>
    </mxGraphModel>
  </diagram>
</mxfile>
